# xmcd
#
# Track frame offsets:
#	183
#	20598
#	31990
#	46978
#	61155
#	78998
#	93573
#	108485
#	122230
#	133870
#	146075
#	159130
#	169268
#	181923
#	193398
#	207220
#	221788
#	236213
#
# Disc length: 3359 seconds
#
# Revision: 3
# Processed by: cddbd v1.5.2PL0 Copyright (c) Steve Scherf et al.
# Submitted via: audiograbber 1.83.01
#
DISCID=0a0d1d12
DTITLE=Bing Crosby - Bing Crosby
DYEAR=1985
DGENRE=Blues
TTITLE0=I Love You Samantha
TTITLE1=Swingling on a star
TTITLE2=Exactly like you
TTITLE3=True Love
TTITLE4=Mack the knife
TTITLE5=San Fernando Valley
TTITLE6=Down among the sheltering palms
TTITLE7=White Christmas
TTITLE8=The Jones Boy
TTITLE9=Dream a little dream of me
TTITLE10=Let a smile be your umbrella
TTITLE11=In a little Spanish Town
TTITLE12=Some sunny day
TTITLE13=Little on
TTITLE14=I'm gonna sit right down and write myself a letter
TTITLE15=Mam Loves Papa
TTITLE16=When the blue of the night meets the gols of the day
TTITLE17=Along the way to Waikiki
EXTD=
EXTT0=
EXTT1=
EXTT2=
EXTT3=
EXTT4=
EXTT5=
EXTT6=
EXTT7=
EXTT8=
EXTT9=
EXTT10=
EXTT11=
EXTT12=
EXTT13=
EXTT14=
EXTT15=
EXTT16=
EXTT17=
PLAYORDER=
